<?xml version="1.0" encoding="UTF-8" standalone="no"?>
<!DOCTYPE svg PUBLIC "-//W3C//DTD SVG 1.1//EN" "http://www.w3.org/Graphics/SVG/1.1/DTD/svg11.dtd">
<svg width="100%" height="100%" viewBox="0 0 48 48" version="1.1" xmlns="http://www.w3.org/2000/svg" xmlns:xlink="http://www.w3.org/1999/xlink" xml:space="preserve" xmlns:serif="http://www.serif.com/" style="fill-rule:evenodd;clip-rule:evenodd;stroke-linejoin:round;stroke-miterlimit:2;">
    <path d="M39.75,42C35.883,42 31.942,41.067 27.925,39.2C23.908,37.333 20.183,34.683 16.75,31.25C13.317,27.817 10.667,24.092 8.8,20.075C6.933,16.058 6,12.117 6,8.25C6,7.607 6.214,7.071 6.643,6.643C7.071,6.214 7.607,6 8.25,6L15.25,6C15.717,6 16.117,6.167 16.45,6.5C16.783,6.833 17.017,7.25 17.15,7.75L18.496,14.032C18.565,14.511 18.558,14.942 18.475,15.325C18.392,15.708 18.213,16.037 17.939,16.311L12.95,21.35C13.817,22.817 14.733,24.183 15.7,25.45C16.667,26.717 17.733,27.917 18.9,29.05C20.133,30.317 21.433,31.475 22.8,32.525C24.167,33.575 25.6,34.5 27.1,35.3L31.85,30.4C32.183,30.033 32.569,29.783 33.008,29.65C33.446,29.517 33.877,29.483 34.3,29.55L40.25,30.85C40.75,30.983 41.167,31.251 41.5,31.652C41.833,32.054 42,32.503 42,33L42,39.75C42,40.393 41.786,40.929 41.357,41.357C40.929,41.786 40.393,42 39.75,42ZM11.45,18.6L15.5,14.5L14.35,9L9,9C9.067,10.4 9.292,11.875 9.675,13.425C10.058,14.975 10.65,16.7 11.45,18.6ZM29.9,36.75C31.267,37.383 32.75,37.9 34.35,38.3C35.95,38.7 37.5,38.933 39,39L39,33.65L33.85,32.6L29.9,36.75Z" style="fill:white;fill-opacity:0.8;fill-rule:nonzero;"/>
</svg>
