<?xml version="1.0" encoding="UTF-8" standalone="no"?>
<!DOCTYPE svg PUBLIC "-//W3C//DTD SVG 1.1//EN" "http://www.w3.org/Graphics/SVG/1.1/DTD/svg11.dtd">
<svg width="100%" height="100%" viewBox="0 0 165 165" version="1.1" xmlns="http://www.w3.org/2000/svg" xmlns:xlink="http://www.w3.org/1999/xlink" xml:space="preserve" xmlns:serif="http://www.serif.com/" style="fill-rule:evenodd;clip-rule:evenodd;stroke-linejoin:round;stroke-miterlimit:2;">
    <g id="Layer_1-2">
        <g transform="matrix(1,0,0,1,2.2,17.395)">
            <path d="M73.31,60.66L69.69,60.66L66.64,52.51L73.31,52.51L73.31,60.66Z" style="fill:white;fill-rule:nonzero;"/>
        </g>
        <g transform="matrix(1,0,0,1,2.2,17.395)">
            <path d="M160.6,36.35L127.26,130.21L95.68,130.21L78.55,84.38L83.4,84.38L83.4,75.17L75.11,75.17L70.93,64L77.16,64L77.16,49.82L65.63,49.82L63.24,43.42L73.31,43.42L73.31,36.35L80.03,36.35L80.03,41.78L90.1,41.78L111.47,103.89L132.09,36.35L160.6,36.35Z" style="fill:white;fill-rule:nonzero;"/>
        </g>
        <g transform="matrix(1,0,0,1,2.2,17.395)">
            <rect x="0" y="3.39" width="5" height="5" style="fill:white;"/>
        </g>
        <g transform="matrix(1,0,0,1,2.2,17.395)">
            <rect x="17.57" y="0" width="7.91" height="7.91" style="fill:white;"/>
        </g>
        <g transform="matrix(1,0,0,1,2.2,17.395)">
            <rect x="19.83" y="15.33" width="4.52" height="4.52" style="fill:white;"/>
        </g>
        <g transform="matrix(1,0,0,1,2.2,17.395)">
            <rect x="32.09" y="19.84" width="14.2" height="12.58" style="fill:white;"/>
        </g>
        <g transform="matrix(1,0,0,1,2.2,17.395)">
            <rect x="47.58" y="5.89" width="8.11" height="8.11" style="fill:white;"/>
        </g>
        <g transform="matrix(1,0,0,1,2.2,17.395)">
            <rect x="76.13" y="17.26" width="5.32" height="5.32" style="fill:white;"/>
        </g>
        <g transform="matrix(1,0,0,1,2.2,17.395)">
            <rect x="24.35" y="38.07" width="7.74" height="7.74" style="fill:white;"/>
        </g>
        <g transform="matrix(1,0,0,1,2.2,17.395)">
            <rect x="48.55" y="48.72" width="7.58" height="7.58" style="fill:white;"/>
        </g>
        <g transform="matrix(1,0,0,1,2.2,17.395)">
            <rect x="65.16" y="52.51" width="8.15" height="8.15" style="fill:white;"/>
        </g>
        <g transform="matrix(1,0,0,1,2.2,17.395)">
            <rect x="55.69" y="28.39" width="13.55" height="12.1" style="fill:white;"/>
        </g>
        <g transform="matrix(1,0,0,1,2.2,17.395)">
            <rect x="83.72" y="27.59" width="10.16" height="10.16" style="fill:white;"/>
        </g>
        <g transform="matrix(1,0,0,1,2.2,17.395)">
            <rect x="65.16" y="52.51" width="8.15" height="8.15" style="fill:white;"/>
        </g>
        <g transform="matrix(1,0,0,1,2.2,17.395)">
            <rect x="83.4" y="75.17" width="0.11" height="9.21" style="fill:white;"/>
        </g>
        <g transform="matrix(1,0,0,1,2.2,17.395)">
            <rect x="76.13" y="77.2" width="5.41" height="5.41" style="fill:white;"/>
        </g>
    </g>
</svg>
