<?xml version="1.0" encoding="UTF-8"?>
<svg id="Layer_2" data-name="Layer 2" xmlns="http://www.w3.org/2000/svg" viewBox="0 0 539.74 170.78">
  <defs>
    <style>
      .cls-1 {
        fill: #fff;
        stroke-width: 0px;
      }
    </style>
  </defs>
  <g id="Layer_1-2" data-name="Layer 1">
    <polygon class="cls-1" points="73.31 60.66 69.69 60.66 66.64 52.51 73.31 52.51 73.31 60.66"/>
    <polygon class="cls-1" points="160.6 36.35 127.26 130.21 95.68 130.21 78.55 84.38 83.4 84.38 83.4 75.17 75.11 75.17 70.93 64 77.16 64 77.16 49.82 65.63 49.82 63.24 43.42 73.31 43.42 73.31 36.35 80.03 36.35 80.03 41.78 90.1 41.78 111.47 103.89 132.09 36.35 160.6 36.35"/>
    <path class="cls-1" d="m214.19,36.79h-6.75c-24.42,0-44.21,19.79-44.21,44.21v6.75c0,24.42,19.79,44.21,44.21,44.21h6.75c24.42,0,44.21-19.79,44.21-44.21v-6.75c0-24.42-19.79-44.21-44.21-44.21Zm-3.47,73.25c-10.66,0-19.3-11.98-19.3-26.76s8.64-26.75,19.3-26.75,19.3,11.97,19.3,26.75-8.64,26.76-19.3,26.76Z"/>
    <polygon class="cls-1" points="261.47 36.79 293.49 36.79 309.72 65.3 325.51 36.79 356.65 36.79 328.26 83.28 360.84 130.21 327.7 130.21 310.16 99.95 291.74 130.21 258.4 130.21 290.42 83.28 261.47 36.79"/>
    <polygon class="cls-1" points="398.32 56.53 398.32 71.88 443.12 71.88 443.12 91.3 398.32 91.3 398.32 108.84 448.12 108.84 448.12 130.21 368.05 130.21 368.05 36.79 446.12 36.79 446.12 56.53 398.32 56.53"/>
    <polygon class="cls-1" points="536.04 106.96 536.04 130.21 461.91 130.21 461.91 36.79 491.74 36.79 491.74 106.96 536.04 106.96"/>
    <rect class="cls-1" y="3.39" width="5" height="5"/>
    <rect class="cls-1" x="17.57" width="7.91" height="7.91"/>
    <rect class="cls-1" x="19.83" y="15.33" width="4.52" height="4.52"/>
    <rect class="cls-1" x="32.09" y="19.84" width="14.2" height="12.58"/>
    <rect class="cls-1" x="47.58" y="5.89" width="8.11" height="8.11"/>
    <rect class="cls-1" x="76.13" y="17.26" width="5.32" height="5.32"/>
    <rect class="cls-1" x="24.35" y="38.07" width="7.74" height="7.74"/>
    <rect class="cls-1" x="48.55" y="48.72" width="7.58" height="7.58"/>
    <rect class="cls-1" x="65.16" y="52.51" width="8.15" height="8.15"/>
    <rect class="cls-1" x="55.69" y="28.39" width="13.55" height="12.1"/>
    <rect class="cls-1" x="83.72" y="27.59" width="10.16" height="10.16"/>
    <rect class="cls-1" x="65.16" y="52.51" width="8.15" height="8.15"/>
    <rect class="cls-1" x="83.4" y="75.17" width=".11" height="9.21"/>
    <g>
      <path class="cls-1" d="m342.13,161.24h6.86c.36,3.05,2.47,4.41,6.3,4.41,2.63,0,5.1-.98,5.1-3.28,0-2.45-2.51-2.98-6.82-3.92-5.78-1.24-10.49-2.6-10.49-8.45s5.02-8.45,11.56-8.45,11.16,2.87,11.6,8.37h-6.66c-.36-2.19-2.19-3.47-5.14-3.47-2.79,0-4.67,1.13-4.67,2.9,0,2.19,2.55,2.68,7.22,3.66,5.34,1.13,10.25,2.79,10.25,8.71s-5.18,9.05-11.96,9.05c-7.93,0-12.96-3.47-13.16-9.54Z"/>
      <path class="cls-1" d="m378.13,159.62l-10.17-17.57h7.46l3.19,5.88c1.36,2.53,2.95,6.67,2.95,6.67h.08s1.67-4.11,3.03-6.67l3.23-5.88h7.18l-10.17,17.49v10.56h-6.78v-10.48Z"/>
      <path class="cls-1" d="m396,161.24h6.86c.36,3.05,2.47,4.41,6.3,4.41,2.63,0,5.1-.98,5.1-3.28,0-2.45-2.51-2.98-6.82-3.92-5.78-1.24-10.49-2.6-10.49-8.45s5.02-8.45,11.56-8.45,11.16,2.87,11.6,8.37h-6.66c-.36-2.19-2.19-3.47-5.14-3.47-2.79,0-4.67,1.13-4.67,2.9,0,2.19,2.55,2.68,7.22,3.66,5.34,1.13,10.25,2.79,10.25,8.71s-5.18,9.05-11.96,9.05c-7.93,0-12.96-3.47-13.16-9.54Z"/>
      <path class="cls-1" d="m423.47,142.05h24.48v5.47h-8.85v22.58h-6.82v-22.58h-8.81v-5.47Z"/>
      <path class="cls-1" d="m452.42,142.05h22.25v5.35h-15.47v5.58h13.4v5.09h-13.4v6.52h15.75v5.5h-22.53v-28.05Z"/>
      <path class="cls-1" d="m480.01,142.05h9.13l3.71,11.69c1.08,3.51,2.23,9.99,2.23,9.99h.12s1.12-6.49,2.19-9.99l3.63-11.69h9.25v28.05h-6.26v-12.56c0-3.54.48-10.1.48-10.1h-.08s-1.28,6-2.31,9.31l-4.23,13.35h-5.58l-4.27-13.35c-1.04-3.32-2.31-9.31-2.31-9.31h-.08s.48,6.56.48,10.1v12.56h-6.1v-28.05Z"/>
      <path class="cls-1" d="m514.62,161.24h6.86c.36,3.05,2.47,4.41,6.3,4.41,2.63,0,5.1-.98,5.1-3.28,0-2.45-2.51-2.98-6.82-3.92-5.78-1.24-10.49-2.6-10.49-8.45s5.02-8.45,11.56-8.45,11.16,2.87,11.6,8.37h-6.66c-.36-2.19-2.19-3.47-5.14-3.47-2.79,0-4.67,1.13-4.67,2.9,0,2.19,2.55,2.68,7.22,3.66,5.34,1.13,10.25,2.79,10.25,8.71s-5.18,9.05-11.96,9.05c-7.93,0-12.96-3.47-13.16-9.54Z"/>
    </g>
    <rect class="cls-1" x="76.13" y="77.2" width="5.41" height="5.41"/>
  </g>
</svg>